<svg width="50" height="50" viewBox="0 0 50 50" fill="none" xmlns="http://www.w3.org/2000/svg">
<path d="M0 0H50V50H9L0 42V0Z" fill="white"/>
<path d="M34 25.5303C34 25.1786 34 24.827 34 24.4753C33.9886 24.4133 33.9748 24.3515 33.9662 24.2892C33.9211 23.9644 33.8945 23.6364 33.8301 23.3152C33.4704 21.522 32.6095 19.9728 31.2559 18.6775C29.8367 17.3193 28.1314 16.4642 26.1392 16.1387C25.7813 16.0802 25.419 16.0456 25.0588 16C24.6878 16 24.3168 16 23.9458 16C23.8919 16.0102 23.8382 16.0224 23.784 16.0303C23.2661 16.1064 22.7393 16.1476 22.2313 16.2628C17.357 17.3693 14.2168 22.0115 15.1706 26.6848C15.567 28.6275 16.5244 30.2836 18.0661 31.6143C20.2658 33.5128 22.8649 34.2699 25.8102 33.9153C27.6862 33.6895 29.3391 32.9597 30.7564 31.7732C32.4258 30.3758 33.4699 28.6369 33.854 26.5519C33.9163 26.2136 33.952 25.8709 34 25.5303ZM26.7457 25.8881C28.9198 24.4031 28.9198 21.7769 27.5366 20.2825C26.0695 18.6974 23.5739 18.5037 21.9295 19.8484C21.1227 20.5081 20.6321 21.3378 20.5347 22.3455C20.3925 23.8185 21.0007 24.9855 22.2443 25.8791C20.1395 26.6876 18.7878 28.1186 18.1674 30.1766C15.4512 27.2968 15.1948 22.3009 18.8728 19.1253C22.5253 15.9717 28.1407 16.4592 31.1675 20.1989C34.0161 23.7184 32.9258 28.0852 30.8255 30.1654C30.5535 29.181 30.0669 28.3094 29.3501 27.558C28.634 26.8076 27.771 26.2565 26.7457 25.8882V25.8881ZM24.3506 32.9511C24.1516 32.9355 23.7931 32.919 23.4379 32.8775C22.0171 32.7113 20.7292 32.2201 19.575 31.4206C19.0866 31.0821 19.094 31.0725 19.2392 30.5082C19.9194 27.8628 22.588 26.1928 25.4144 26.6438C27.7206 27.0118 29.5423 28.7945 29.8552 30.9963C29.8628 31.0494 29.8241 31.1305 29.7786 31.1652C28.241 32.3383 26.4814 32.9263 24.3507 32.9511L24.3506 32.9511ZM24.5109 25.4748C22.933 25.4853 21.6379 24.2708 21.6161 22.7603C21.5947 21.2739 22.8916 20.0264 24.4753 20.0098C26.0612 19.9933 27.3655 21.2095 27.3885 22.7264C27.4111 24.2211 26.1097 25.4641 24.511 25.4748H24.5109Z" fill="black"/>
</svg>
