<svg width="50" height="50" viewBox="0 0 50 50" fill="none" xmlns="http://www.w3.org/2000/svg">
<path d="M0 0H50V50H9L0 42V0Z" fill="#F10519"/>
<path d="M30.1213 17C28.8493 17 27.7284 17.1782 26.7798 17.5373C24.6022 18.3617 23.3318 20.1393 23.2273 22.9043C23.2226 23.0279 23.2202 23.1538 23.2202 23.2817V27.0778C23.1358 29.1493 22.2779 30.111 19.8787 30.111C17.0049 30.111 16.5525 28.4254 16.5525 26.7183V17H13V26.7183C13 30.9644 15.5345 33 19.8787 33C21.1507 33 22.2716 32.8218 23.2202 32.4627C25.3978 31.6383 26.6682 29.8607 26.7727 27.0957C26.7774 26.9721 26.7798 26.8462 26.7798 26.7183V22.9222C26.8642 20.8507 27.7221 19.889 30.1213 19.889C32.9951 19.889 33.4475 21.5746 33.4475 23.2817V33H37V23.2817C37 19.0353 34.4655 17 30.1213 17Z" fill="black"/>
</svg>
