<svg width="50" height="50" viewBox="0 0 50 50" fill="none" xmlns="http://www.w3.org/2000/svg">
<g clip-path="url(#clip0_4002_28)">
<path d="M25 11.1734L30.1594 4.86719C30.1594 4.86719 38.9969 5.05469 47.8031 9.14844C45.5484 12.5578 41.0734 14.2266 41.0734 14.2266C40.7719 11.2312 38.6734 10.5 32 10.5L25.0016 50.0016L17.9547 10.4922C11.3297 10.4922 9.23125 11.225 8.92969 14.2188C8.92969 14.2188 4.45312 12.5672 2.2 9.15625C11.0047 5.0625 19.8438 4.875 19.8438 4.875L25.0031 11.1734H24.9953H25ZM25 3.05156C32.1125 2.98594 40.2594 4.15 48.6 7.79531C49.7156 5.77656 50 4.89062 50 4.89062C40.8859 1.27656 32.3484 0.0328125 25 0C17.6516 0.0328125 9.11406 1.27031 0 4.89062C0 4.89062 0.40625 5.98906 1.4 7.80469C9.74219 4.14219 17.8875 2.9875 25 3.04375V3.05156Z" fill="white"/>
</g>
<defs>
<clipPath id="clip0_4002_28">
<rect width="50" height="50" fill="white"/>
</clipPath>
</defs>
</svg>
